<?xml version="1.0" encoding="UTF-8"?>
<!DOCTYPE svg PUBLIC "-//W3C//DTD SVG 1.1//EN" "http://www.w3.org/Graphics/SVG/1.1/DTD/svg11.dtd">
<svg xmlns="http://www.w3.org/2000/svg" version="1.1" width="500px" height="500px" style="shape-rendering:geometricPrecision; text-rendering:geometricPrecision; image-rendering:optimizeQuality; fill-rule:evenodd; clip-rule:evenodd" xmlns:xlink="http://www.w3.org/1999/xlink">
<g><path style="opacity:1" fill="#b1b1af" d="M -0.5,-0.5 C 36.5,-0.5 73.5,-0.5 110.5,-0.5C 110.52,1.14297 109.853,2.4763 108.5,3.5C 105.914,4.48002 103.247,4.81335 100.5,4.5C 100.579,5.93047 100.246,7.26381 99.5,8.5C 93.2621,8.98791 88.2621,11.6546 84.5,16.5C 73.6935,17.0237 63.0269,18.357 52.5,20.5C 52.5,21.5 52.5,22.5 52.5,23.5C 49.1127,24.0181 45.7794,24.8514 42.5,26C 41.6198,27.3561 41.2865,28.8561 41.5,30.5C 37.5633,30.2065 33.73,30.5399 30,31.5C 27.4475,28.8059 26.2808,29.4726 26.5,33.5C 22.7023,34.1544 19.0356,35.1544 15.5,36.5C 15.5,37.5 15.5,38.5 15.5,39.5C 9.86699,40.6782 4.53366,42.3449 -0.5,44.5C -0.5,29.5 -0.5,14.5 -0.5,-0.5 Z"/></g>
<g><path style="opacity:1" fill="#bebebd" d="M 110.5,-0.5 C 175.833,-0.5 241.167,-0.5 306.5,-0.5C 307.174,1.02449 308.174,2.35782 309.5,3.5C 313.107,4.48922 316.774,4.82256 320.5,4.5C 320.5,3.5 320.5,2.5 320.5,1.5C 322.857,1.33669 325.19,1.50335 327.5,2C 328.955,4.01616 330.955,4.84949 333.5,4.5C 333.5,5.5 333.5,6.5 333.5,7.5C 343.21,7.75522 352.877,8.58855 362.5,10C 365.197,12.8476 368.531,14.3476 372.5,14.5C 372.5,13.1667 372.5,11.8333 372.5,10.5C 376.226,10.1774 379.893,10.5108 383.5,11.5C 384.04,12.7481 384.707,13.9148 385.5,15C 395.561,16.7258 404.895,20.2258 413.5,25.5C 415.091,23.0162 417.425,22.0162 420.5,22.5C 426.038,22.6891 431.371,23.6891 436.5,25.5C 436.5,26.5 436.5,27.5 436.5,28.5C 442.675,30.2123 449.008,31.2123 455.5,31.5C 456.167,34.8333 456.833,38.1667 457.5,41.5C 463.509,41.3338 469.509,41.5005 475.5,42C 478.795,43.2285 481.795,44.8952 484.5,47C 487.779,48.1486 491.113,48.9819 494.5,49.5C 494.5,50.5 494.5,51.5 494.5,52.5C 496.167,52.5 497.833,52.5 499.5,52.5C 499.5,58.5 499.5,64.5 499.5,70.5C 497.833,70.5 496.167,70.5 494.5,70.5C 494.5,68.8333 494.5,67.1667 494.5,65.5C 489.743,63.41 484.743,61.5767 479.5,60C 478.167,58.3333 476.833,56.6667 475.5,55C 467.288,53.9881 460.288,50.6548 454.5,45C 450.519,45.1923 447.519,43.6923 445.5,40.5C 439.244,39.1077 432.911,38.441 426.5,38.5C 426.5,37.1667 426.5,35.8333 426.5,34.5C 419.781,34.374 413.114,33.7073 406.5,32.5C 405.273,31.4096 404.44,30.0762 404,28.5C 401.196,30.3444 398.03,31.0111 394.5,30.5C 394.5,29.1667 394.5,27.8333 394.5,26.5C 387.292,25.895 380.292,24.5617 373.5,22.5C 372.01,21.1743 370.676,19.6743 369.5,18C 365.138,17.3864 360.971,17.8864 357,19.5C 351.322,18.0314 345.489,17.0314 339.5,16.5C 339.5,17.8333 339.5,19.1667 339.5,20.5C 336.68,20.7525 334.014,20.2525 331.5,19C 330.663,17.9887 330.33,16.8221 330.5,15.5C 323.822,16.0353 317.322,15.3687 311,13.5C 309.739,13.7591 308.739,14.4258 308,15.5C 302.583,14.6911 297.083,14.1911 291.5,14C 290.663,12.9887 290.33,11.8221 290.5,10.5C 272.155,10.1671 253.821,10.5004 235.5,11.5C 235.291,12.086 234.957,12.586 234.5,13C 231.183,13.4983 227.85,13.665 224.5,13.5C 224.5,12.5 224.5,11.5 224.5,10.5C 220.833,10.5 217.167,10.5 213.5,10.5C 213.5,12.1667 213.5,13.8333 213.5,15.5C 206.492,15.3337 199.492,15.5004 192.5,16C 178.599,18.2473 164.599,20.0806 150.5,21.5C 147.617,24.0897 144.617,24.0897 141.5,21.5C 140.5,21.8333 139.833,22.5 139.5,23.5C 135.5,24.3333 131.5,25.1667 127.5,26C 126.62,27.3561 126.286,28.8561 126.5,30.5C 123.692,30.3067 121.025,29.64 118.5,28.5C 118.5,29.5 118.5,30.5 118.5,31.5C 115.309,32.7199 111.975,33.5532 108.5,34C 105.008,37.4287 103.008,36.5953 102.5,31.5C 101.5,31.5 100.5,31.5 99.5,31.5C 99.6499,34.4587 98.6499,36.9587 96.5,39C 90.763,39.6141 85.0963,40.6141 79.5,42C 76.5715,44.3113 73.2382,45.9779 69.5,47C 68.6198,48.3561 68.2865,49.8561 68.5,51.5C 65.4041,50.9066 63.0708,51.9066 61.5,54.5C 60.4763,53.1468 59.143,52.4802 57.5,52.5C 57.5,54.1667 57.5,55.8333 57.5,57.5C 53.1667,57.5 48.8333,57.5 44.5,57.5C 44.5,58.5 44.5,59.5 44.5,60.5C 40.5228,61.7257 36.8562,63.3924 33.5,65.5C 33.5,66.5 33.5,67.5 33.5,68.5C 28.993,69.9284 24.6596,71.5951 20.5,73.5C 20.5,74.5 20.5,75.5 20.5,76.5C 19.5,76.5 18.5,76.5 17.5,76.5C 17.5,78.1667 17.5,79.8333 17.5,81.5C 15.8333,81.5 14.1667,81.5 12.5,81.5C 12.5,82.5 12.5,83.5 12.5,84.5C 8.07748,84.6904 3.74414,85.3571 -0.5,86.5C -0.5,72.5 -0.5,58.5 -0.5,44.5C 4.53366,42.3449 9.86699,40.6782 15.5,39.5C 15.5,38.5 15.5,37.5 15.5,36.5C 19.0356,35.1544 22.7023,34.1544 26.5,33.5C 26.2808,29.4726 27.4475,28.8059 30,31.5C 33.73,30.5399 37.5633,30.2065 41.5,30.5C 41.2865,28.8561 41.6198,27.3561 42.5,26C 45.7794,24.8514 49.1127,24.0181 52.5,23.5C 52.5,22.5 52.5,21.5 52.5,20.5C 63.0269,18.357 73.6935,17.0237 84.5,16.5C 88.2621,11.6546 93.2621,8.98791 99.5,8.5C 100.246,7.26381 100.579,5.93047 100.5,4.5C 103.247,4.81335 105.914,4.48002 108.5,3.5C 109.853,2.4763 110.52,1.14297 110.5,-0.5 Z"/></g>
<g><path style="opacity:1" fill="#b9b9b7" d="M 306.5,-0.5 C 336.5,-0.5 366.5,-0.5 396.5,-0.5C 396.414,0.495904 396.748,1.32924 397.5,2C 402.433,3.31767 407.433,4.151 412.5,4.5C 412.5,6.16667 412.5,7.83333 412.5,9.5C 421.258,9.13446 429.925,9.80113 438.5,11.5C 438.709,12.086 439.043,12.586 439.5,13C 442.146,13.4974 444.813,13.6641 447.5,13.5C 447.5,14.8333 447.5,16.1667 447.5,17.5C 450.579,17.7399 453.579,17.4066 456.5,16.5C 460.286,19.1796 464.286,21.1796 468.5,22.5C 474.802,23.8605 481.136,25.0272 487.5,26C 488.184,29.1237 489.184,30.9571 490.5,31.5C 493.5,31.5 496.5,31.5 499.5,31.5C 499.5,38.5 499.5,45.5 499.5,52.5C 497.833,52.5 496.167,52.5 494.5,52.5C 494.5,51.5 494.5,50.5 494.5,49.5C 491.113,48.9819 487.779,48.1486 484.5,47C 481.795,44.8952 478.795,43.2285 475.5,42C 469.509,41.5005 463.509,41.3338 457.5,41.5C 456.833,38.1667 456.167,34.8333 455.5,31.5C 449.008,31.2123 442.675,30.2123 436.5,28.5C 436.5,27.5 436.5,26.5 436.5,25.5C 431.371,23.6891 426.038,22.6891 420.5,22.5C 417.425,22.0162 415.091,23.0162 413.5,25.5C 404.895,20.2258 395.561,16.7258 385.5,15C 384.707,13.9148 384.04,12.7481 383.5,11.5C 379.893,10.5108 376.226,10.1774 372.5,10.5C 372.5,11.8333 372.5,13.1667 372.5,14.5C 368.531,14.3476 365.197,12.8476 362.5,10C 352.877,8.58855 343.21,7.75522 333.5,7.5C 333.5,6.5 333.5,5.5 333.5,4.5C 330.955,4.84949 328.955,4.01616 327.5,2C 325.19,1.50335 322.857,1.33669 320.5,1.5C 320.5,2.5 320.5,3.5 320.5,4.5C 316.774,4.82256 313.107,4.48922 309.5,3.5C 308.174,2.35782 307.174,1.02449 306.5,-0.5 Z"/></g>
<g><path style="opacity:1" fill="#b1b1af" d="M 396.5,-0.5 C 430.833,-0.5 465.167,-0.5 499.5,-0.5C 499.5,10.1667 499.5,20.8333 499.5,31.5C 496.5,31.5 493.5,31.5 490.5,31.5C 489.184,30.9571 488.184,29.1237 487.5,26C 481.136,25.0272 474.802,23.8605 468.5,22.5C 464.286,21.1796 460.286,19.1796 456.5,16.5C 453.579,17.4066 450.579,17.7399 447.5,17.5C 447.5,16.1667 447.5,14.8333 447.5,13.5C 444.813,13.6641 442.146,13.4974 439.5,13C 439.043,12.586 438.709,12.086 438.5,11.5C 429.925,9.80113 421.258,9.13446 412.5,9.5C 412.5,7.83333 412.5,6.16667 412.5,4.5C 407.433,4.151 402.433,3.31767 397.5,2C 396.748,1.32924 396.414,0.495904 396.5,-0.5 Z"/></g>
<g><path style="opacity:1" fill="#c5c5c4" d="M 499.5,70.5 C 499.5,76.8333 499.5,83.1667 499.5,89.5C 498.167,89.5 496.833,89.5 495.5,89.5C 495.689,85.0395 493.689,82.3729 489.5,81.5C 489.5,79.8333 489.5,78.1667 489.5,76.5C 484.882,77.6913 482.382,76.0246 482,71.5C 479.452,72.8542 477.119,74.5209 475,76.5C 474,73.1667 473,69.8333 472,66.5C 470.989,65.6634 469.822,65.33 468.5,65.5C 468.5,67.1667 468.5,68.8333 468.5,70.5C 467.167,70.5 465.833,70.5 464.5,70.5C 464.714,68.8561 464.38,67.3561 463.5,66C 458.222,64.2624 453.222,62.0958 448.5,59.5C 446.673,57.5128 445.673,55.1795 445.5,52.5C 442.756,52.2479 440.256,52.9145 438,54.5C 436.7,53.2927 435.2,52.6261 433.5,52.5C 433.5,51.5 433.5,50.5 433.5,49.5C 427.456,48.8919 421.456,47.8919 415.5,46.5C 415.291,45.914 414.957,45.414 414.5,45C 410.848,44.5014 407.182,44.3347 403.5,44.5C 403.5,42.8333 403.5,41.1667 403.5,39.5C 396.964,38.2687 390.297,37.2687 383.5,36.5C 383.5,34.8333 383.5,33.1667 383.5,31.5C 375.073,31.0963 366.74,31.763 358.5,33.5C 353.323,31.6373 347.99,30.6373 342.5,30.5C 342.5,29.1667 342.5,27.8333 342.5,26.5C 341.5,26.5 340.5,26.5 339.5,26.5C 339.5,25.5 339.5,24.5 339.5,23.5C 336.5,23.5 333.5,23.5 330.5,23.5C 330.5,24.5 330.5,25.5 330.5,26.5C 323.492,26.6663 316.492,26.4996 309.5,26C 308.672,25.0853 307.672,24.4186 306.5,24C 286.636,23.8157 266.802,23.3157 247,22.5C 240,25.1667 233,25.1667 226,22.5C 222.044,24.2792 217.877,24.9459 213.5,24.5C 213.5,23.5 213.5,22.5 213.5,21.5C 211.167,21.5 208.833,21.5 206.5,21.5C 206.64,23.1238 205.973,24.2904 204.5,25C 194.437,25.8524 184.437,27.0191 174.5,28.5C 174.5,29.5 174.5,30.5 174.5,31.5C 166.5,31.5 158.5,31.5 150.5,31.5C 150.5,33.1667 150.5,34.8333 150.5,36.5C 147.15,36.335 143.817,36.5017 140.5,37C 134.208,38.4672 127.874,39.9672 121.5,41.5C 121.5,42.5 121.5,43.5 121.5,44.5C 119.857,44.5198 118.524,43.8532 117.5,42.5C 116.614,43.325 116.281,44.325 116.5,45.5C 111.037,45.6888 105.704,46.3555 100.5,47.5C 100.714,49.1439 100.38,50.6439 99.5,52C 93.1754,52.4995 86.8421,52.6662 80.5,52.5C 80.8034,55.5876 79.4701,57.2542 76.5,57.5C 76.7377,60.4082 75.7377,62.7415 73.5,64.5C 70.2317,65.487 66.8984,65.8204 63.5,65.5C 63.5,66.5 63.5,67.5 63.5,68.5C 59.0141,67.8623 55.3475,69.1956 52.5,72.5C 50.9547,73.4519 49.288,73.7852 47.5,73.5C 47.7394,75.4672 47.4061,77.3005 46.5,79C 40.3505,80.731 34.3505,82.5644 28.5,84.5C 28.5,86.1667 28.5,87.8333 28.5,89.5C 26.8333,89.5 25.1667,89.5 23.5,89.5C 23.5,90.5 23.5,91.5 23.5,92.5C 21.8333,92.5 20.1667,92.5 18.5,92.5C 18.5,94.1667 18.5,95.8333 18.5,97.5C 16.2495,97.1814 14.2495,97.6814 12.5,99C 15.1446,100.287 16.1446,102.453 15.5,105.5C 14.5,105.5 13.5,105.5 12.5,105.5C 11.8333,101.5 11.1667,101.5 10.5,105.5C 9.5,105.5 8.5,105.5 7.5,105.5C 7.5,106.5 7.5,107.5 7.5,108.5C 5.83333,108.5 4.16667,108.5 2.5,108.5C 2.66331,110.857 2.49665,113.19 2,115.5C 1.32924,116.252 0.495904,116.586 -0.5,116.5C -0.5,106.5 -0.5,96.5 -0.5,86.5C 3.74414,85.3571 8.07748,84.6904 12.5,84.5C 12.5,83.5 12.5,82.5 12.5,81.5C 14.1667,81.5 15.8333,81.5 17.5,81.5C 17.5,79.8333 17.5,78.1667 17.5,76.5C 18.5,76.5 19.5,76.5 20.5,76.5C 20.5,75.5 20.5,74.5 20.5,73.5C 24.6596,71.5951 28.993,69.9284 33.5,68.5C 33.5,67.5 33.5,66.5 33.5,65.5C 36.8562,63.3924 40.5228,61.7257 44.5,60.5C 44.5,59.5 44.5,58.5 44.5,57.5C 48.8333,57.5 53.1667,57.5 57.5,57.5C 57.5,55.8333 57.5,54.1667 57.5,52.5C 59.143,52.4802 60.4763,53.1468 61.5,54.5C 63.0708,51.9066 65.4041,50.9066 68.5,51.5C 68.2865,49.8561 68.6198,48.3561 69.5,47C 73.2382,45.9779 76.5715,44.3113 79.5,42C 85.0963,40.6141 90.763,39.6141 96.5,39C 98.6499,36.9587 99.6499,34.4587 99.5,31.5C 100.5,31.5 101.5,31.5 102.5,31.5C 103.008,36.5953 105.008,37.4287 108.5,34C 111.975,33.5532 115.309,32.7199 118.5,31.5C 118.5,30.5 118.5,29.5 118.5,28.5C 121.025,29.64 123.692,30.3067 126.5,30.5C 126.286,28.8561 126.62,27.3561 127.5,26C 131.5,25.1667 135.5,24.3333 139.5,23.5C 139.833,22.5 140.5,21.8333 141.5,21.5C 144.617,24.0897 147.617,24.0897 150.5,21.5C 164.599,20.0806 178.599,18.2473 192.5,16C 199.492,15.5004 206.492,15.3337 213.5,15.5C 213.5,13.8333 213.5,12.1667 213.5,10.5C 217.167,10.5 220.833,10.5 224.5,10.5C 224.5,11.5 224.5,12.5 224.5,13.5C 227.85,13.665 231.183,13.4983 234.5,13C 234.957,12.586 235.291,12.086 235.5,11.5C 253.821,10.5004 272.155,10.1671 290.5,10.5C 290.33,11.8221 290.663,12.9887 291.5,14C 297.083,14.1911 302.583,14.6911 308,15.5C 308.739,14.4258 309.739,13.7591 311,13.5C 317.322,15.3687 323.822,16.0353 330.5,15.5C 330.33,16.8221 330.663,17.9887 331.5,19C 334.014,20.2525 336.68,20.7525 339.5,20.5C 339.5,19.1667 339.5,17.8333 339.5,16.5C 345.489,17.0314 351.322,18.0314 357,19.5C 360.971,17.8864 365.138,17.3864 369.5,18C 370.676,19.6743 372.01,21.1743 373.5,22.5C 380.292,24.5617 387.292,25.895 394.5,26.5C 394.5,27.8333 394.5,29.1667 394.5,30.5C 398.03,31.0111 401.196,30.3444 404,28.5C 404.44,30.0762 405.273,31.4096 406.5,32.5C 413.114,33.7073 419.781,34.374 426.5,34.5C 426.5,35.8333 426.5,37.1667 426.5,38.5C 432.911,38.441 439.244,39.1077 445.5,40.5C 447.519,43.6923 450.519,45.1923 454.5,45C 460.288,50.6548 467.288,53.9881 475.5,55C 476.833,56.6667 478.167,58.3333 479.5,60C 484.743,61.5767 489.743,63.41 494.5,65.5C 494.5,67.1667 494.5,68.8333 494.5,70.5C 496.167,70.5 497.833,70.5 499.5,70.5 Z"/></g>
<g><path style="opacity:1" fill="#cbcbca" d="M 499.5,89.5 C 499.5,98.5 499.5,107.5 499.5,116.5C 497.856,116.714 496.356,116.38 495,115.5C 494.502,112.183 494.335,108.85 494.5,105.5C 491.5,105.5 488.5,105.5 485.5,105.5C 484.154,101.964 483.154,98.2977 482.5,94.5C 477.734,94.4024 473.067,93.7357 468.5,92.5C 468.871,87.5903 466.538,84.9236 461.5,84.5C 461.5,83.5 461.5,82.5 461.5,81.5C 457.833,81.5 454.167,81.5 450.5,81.5C 450.5,79.8333 450.5,78.1667 450.5,76.5C 448.654,76.7778 447.32,76.1112 446.5,74.5C 443.232,73.513 439.898,73.1796 436.5,73.5C 436.5,71.8333 436.5,70.1667 436.5,68.5C 434.023,68.9492 432.023,68.2825 430.5,66.5C 425.544,65.5059 420.544,65.1725 415.5,65.5C 415.5,63.8333 415.5,62.1667 415.5,60.5C 411.833,60.5 408.167,60.5 404.5,60.5C 404.5,59.5 404.5,58.5 404.5,57.5C 397.908,56.135 391.242,55.135 384.5,54.5C 384.762,53.0222 384.429,51.6888 383.5,50.5C 378.266,49.8932 373.599,48.0599 369.5,45C 360.167,44.6667 350.833,44.3333 341.5,44C 341.043,43.586 340.709,43.086 340.5,42.5C 330.262,40.4771 319.929,39.1438 309.5,38.5C 309.291,37.914 308.957,37.414 308.5,37C 287.833,36.3333 267.167,36.3333 246.5,37C 246.043,37.414 245.709,37.914 245.5,38.5C 227.846,39.4995 210.179,39.8329 192.5,39.5C 192.5,41.1667 192.5,42.8333 192.5,44.5C 185.5,44.5 178.5,44.5 171.5,44.5C 171.5,45.5 171.5,46.5 171.5,47.5C 160.869,48.5842 150.536,50.2509 140.5,52.5C 140.5,54.1667 140.5,55.8333 140.5,57.5C 133.492,57.3337 126.492,57.5004 119.5,58C 116.998,60.212 113.998,61.0453 110.5,60.5C 110.5,62.1667 110.5,63.8333 110.5,65.5C 108.833,65.5 107.167,65.5 105.5,65.5C 105.5,66.5 105.5,67.5 105.5,68.5C 102.833,68.5 100.167,68.5 97.5,68.5C 97.5,69.5 97.5,70.5 97.5,71.5C 94.7531,71.1866 92.0865,71.52 89.5,72.5C 87.6558,74.8429 85.6558,77.0096 83.5,79C 79.4889,80.1744 76.1556,82.3411 73.5,85.5C 71.2338,86.3142 68.9005,86.8142 66.5,87C 65.5939,88.6995 65.2606,90.5328 65.5,92.5C 60.4395,93.1968 55.4395,94.1968 50.5,95.5C 50.5,97.8333 50.5,100.167 50.5,102.5C 45.5,101.5 43.5,103.5 44.5,108.5C 41.8333,108.5 39.1667,108.5 36.5,108.5C 35.8333,111.833 35.1667,115.167 34.5,118.5C 33.5,118.5 32.5,118.5 31.5,118.5C 31.5,121.167 31.5,123.833 31.5,126.5C 29.8333,126.5 28.1667,126.5 26.5,126.5C 26.5,129.167 26.5,131.833 26.5,134.5C 25.5,134.5 24.5,134.5 23.5,134.5C 23.5,132.833 23.5,131.167 23.5,129.5C 22.5,129.5 21.5,129.5 20.5,129.5C 20.5,132.167 20.5,134.833 20.5,137.5C 13.8039,137.535 11.1372,140.868 12.5,147.5C 10.8561,147.286 9.35613,147.62 8,148.5C 7.50038,155.492 7.33371,162.492 7.5,169.5C 5.83333,169.5 4.16667,169.5 2.5,169.5C 2.5,179.833 2.5,190.167 2.5,200.5C 1.5,200.5 0.5,200.5 -0.5,200.5C -0.5,172.5 -0.5,144.5 -0.5,116.5C 0.495904,116.586 1.32924,116.252 2,115.5C 2.49665,113.19 2.66331,110.857 2.5,108.5C 4.16667,108.5 5.83333,108.5 7.5,108.5C 7.5,107.5 7.5,106.5 7.5,105.5C 8.5,105.5 9.5,105.5 10.5,105.5C 11.1667,101.5 11.8333,101.5 12.5,105.5C 13.5,105.5 14.5,105.5 15.5,105.5C 16.1446,102.453 15.1446,100.287 12.5,99C 14.2495,97.6814 16.2495,97.1814 18.5,97.5C 18.5,95.8333 18.5,94.1667 18.5,92.5C 20.1667,92.5 21.8333,92.5 23.5,92.5C 23.5,91.5 23.5,90.5 23.5,89.5C 25.1667,89.5 26.8333,89.5 28.5,89.5C 28.5,87.8333 28.5,86.1667 28.5,84.5C 34.3505,82.5644 40.3505,80.731 46.5,79C 47.4061,77.3005 47.7394,75.4672 47.5,73.5C 49.288,73.7852 50.9547,73.4519 52.5,72.5C 55.3475,69.1956 59.0141,67.8623 63.5,68.5C 63.5,67.5 63.5,66.5 63.5,65.5C 66.8984,65.8204 70.2317,65.487 73.5,64.5C 75.7377,62.7415 76.7377,60.4082 76.5,57.5C 79.4701,57.2542 80.8034,55.5876 80.5,52.5C 86.8421,52.6662 93.1754,52.4995 99.5,52C 100.38,50.6439 100.714,49.1439 100.5,47.5C 105.704,46.3555 111.037,45.6888 116.5,45.5C 116.281,44.325 116.614,43.325 117.5,42.5C 118.524,43.8532 119.857,44.5198 121.5,44.5C 121.5,43.5 121.5,42.5 121.5,41.5C 127.874,39.9672 134.208,38.4672 140.5,37C 143.817,36.5017 147.15,36.335 150.5,36.5C 150.5,34.8333 150.5,33.1667 150.5,31.5C 158.5,31.5 166.5,31.5 174.5,31.5C 174.5,30.5 174.5,29.5 174.5,28.5C 184.437,27.0191 194.437,25.8524 204.5,25C 205.973,24.2904 206.64,23.1238 206.5,21.5C 208.833,21.5 211.167,21.5 213.5,21.5C 213.5,22.5 213.5,23.5 213.5,24.5C 217.877,24.9459 222.044,24.2792 226,22.5C 233,25.1667 240,25.1667 247,22.5C 266.802,23.3157 286.636,23.8157 306.5,24C 307.672,24.4186 308.672,25.0853 309.5,26C 316.492,26.4996 323.492,26.6663 330.5,26.5C 330.5,25.5 330.5,24.5 330.5,23.5C 333.5,23.5 336.5,23.5 339.5,23.5C 339.5,24.5 339.5,25.5 339.5,26.5C 340.5,26.5 341.5,26.5 342.5,26.5C 342.5,27.8333 342.5,29.1667 342.5,30.5C 347.99,30.6373 353.323,31.6373 358.5,33.5C 366.74,31.763 375.073,31.0963 383.5,31.5C 383.5,33.1667 383.5,34.8333 383.5,36.5C 390.297,37.2687 396.964,38.2687 403.5,39.5C 403.5,41.1667 403.5,42.8333 403.5,44.5C 407.182,44.3347 410.848,44.5014 414.5,45C 414.957,45.414 415.291,45.914 415.5,46.5C 421.456,47.8919 427.456,48.8919 433.5,49.5C 433.5,50.5 433.5,51.5 433.5,52.5C 435.2,52.6261 436.7,53.2927 438,54.5C 440.256,52.9145 442.756,52.2479 445.5,52.5C 445.673,55.1795 446.673,57.5128 448.5,59.5C 453.222,62.0958 458.222,64.2624 463.5,66C 464.38,67.3561 464.714,68.8561 464.5,70.5C 465.833,70.5 467.167,70.5 468.5,70.5C 468.5,68.8333 468.5,67.1667 468.5,65.5C 469.822,65.33 470.989,65.6634 472,66.5C 473,69.8333 474,73.1667 475,76.5C 477.119,74.5209 479.452,72.8542 482,71.5C 482.382,76.0246 484.882,77.6913 489.5,76.5C 489.5,78.1667 489.5,79.8333 489.5,81.5C 493.689,82.3729 495.689,85.0395 495.5,89.5C 496.833,89.5 498.167,89.5 499.5,89.5 Z"/></g>
<g><path style="opacity:1" fill="#d2d2d1" d="M 499.5,116.5 C 499.5,147.833 499.5,179.167 499.5,210.5C 496.167,210.5 492.833,210.5 489.5,210.5C 489.296,207.482 488.963,204.482 488.5,201.5C 481.833,201.5 475.167,201.5 468.5,201.5C 468.5,193.5 468.5,185.5 468.5,177.5C 470.833,177.5 473.167,177.5 475.5,177.5C 475.5,174.833 475.5,172.167 475.5,169.5C 476.5,169.5 477.5,169.5 478.5,169.5C 478.5,165.5 478.5,161.5 478.5,157.5C 480.167,157.5 481.833,157.5 483.5,157.5C 483.5,150.833 483.5,144.167 483.5,137.5C 481.833,137.5 480.167,137.5 478.5,137.5C 478.5,130.5 478.5,123.5 478.5,116.5C 473.146,116.431 467.813,116.098 462.5,115.5C 462.5,112.167 462.5,108.833 462.5,105.5C 459.15,105.665 455.817,105.498 452.5,105C 451.62,103.644 451.286,102.144 451.5,100.5C 447.5,101.167 445.833,99.5 446.5,95.5C 442.5,96.1667 440.833,94.5 441.5,90.5C 436.839,91.1679 434.839,89.1679 435.5,84.5C 430.146,84.4312 424.813,84.0978 419.5,83.5C 419.5,82.1667 419.5,80.8333 419.5,79.5C 415.5,80.1667 413.833,78.5 414.5,74.5C 408.203,74.4224 402.203,73.4224 396.5,71.5C 396.5,70.5 396.5,69.5 396.5,68.5C 391.71,66.9657 386.71,66.299 381.5,66.5C 381.5,65.5 381.5,64.5 381.5,63.5C 378.002,64.0453 375.002,63.212 372.5,61C 366.5,60.6667 360.5,60.3333 354.5,60C 352.842,58.3375 350.842,57.5041 348.5,57.5C 348.5,56.1667 348.5,54.8333 348.5,53.5C 344.605,53.7063 340.771,54.3729 337,55.5C 333.834,54.6949 330.667,54.0282 327.5,53.5C 327.5,52.5 327.5,51.5 327.5,50.5C 318.161,50.6665 308.827,50.4998 299.5,50C 299.043,49.586 298.709,49.086 298.5,48.5C 291.854,46.9636 285.354,47.2969 279,49.5C 273.469,48.2365 267.802,47.5698 262,47.5C 256.833,47.8333 251.667,48.1667 246.5,48.5C 246.291,49.086 245.957,49.586 245.5,50C 240.235,50.2387 235.068,51.072 230,52.5C 228.342,52.3248 227.009,51.6582 226,50.5C 225.517,51.448 225.351,52.448 225.5,53.5C 224.167,53.5 222.833,53.5 221.5,53.5C 221.5,52.5 221.5,51.5 221.5,50.5C 205.234,52.3998 188.901,53.3998 172.5,53.5C 171.949,56.8067 171.616,60.1401 171.5,63.5C 168.306,63.2695 165.306,63.9362 162.5,65.5C 161.353,65.1822 160.519,64.5156 160,63.5C 159.517,64.448 159.351,65.448 159.5,66.5C 154.037,66.6888 148.704,67.3555 143.5,68.5C 143.5,69.5 143.5,70.5 143.5,71.5C 138.833,71.5 134.167,71.5 129.5,71.5C 129.5,73.1667 129.5,74.8333 129.5,76.5C 126.167,76.5 122.833,76.5 119.5,76.5C 119.5,77.5 119.5,78.5 119.5,79.5C 118.5,79.5 117.5,79.5 116.5,79.5C 116.5,80.5 116.5,81.5 116.5,82.5C 109.918,81.9739 104.084,83.6406 99,87.5C 98.5034,89.8098 98.3367,92.1432 98.5,94.5C 95.5,94.5 92.5,94.5 89.5,94.5C 88.982,99.1032 87.6487,99.4366 85.5,95.5C 84.52,98.0865 84.1866,100.753 84.5,103.5C 82.8333,103.5 81.1667,103.5 79.5,103.5C 80.2436,106.95 78.9103,108.616 75.5,108.5C 75.6495,107.448 75.4828,106.448 75,105.5C 74.5026,108.146 74.3359,110.813 74.5,113.5C 72.8333,113.5 71.1667,113.5 69.5,113.5C 69.5,114.5 69.5,115.5 69.5,116.5C 68.5,116.5 67.5,116.5 66.5,116.5C 66.5,117.5 66.5,118.5 66.5,119.5C 65.5,119.5 64.5,119.5 63.5,119.5C 63.5,122.167 63.5,124.833 63.5,127.5C 61.8333,127.5 60.1667,127.5 58.5,127.5C 58.6646,130.518 58.498,133.518 58,136.5C 56.6439,137.38 55.1439,137.714 53.5,137.5C 53.5,141.167 53.5,144.833 53.5,148.5C 50.8333,148.5 48.1667,148.5 45.5,148.5C 45.3221,166.17 44.9888,183.837 44.5,201.5C 41.1667,201.5 37.8333,201.5 34.5,201.5C 34.7135,203.144 34.3802,204.644 33.5,206C 29.5195,205.893 26.0195,207.06 23,209.5C 14.7158,210.99 6.88248,213.323 -0.5,216.5C -0.5,211.167 -0.5,205.833 -0.5,200.5C 0.5,200.5 1.5,200.5 2.5,200.5C 2.5,190.167 2.5,179.833 2.5,169.5C 4.16667,169.5 5.83333,169.5 7.5,169.5C 7.33371,162.492 7.50038,155.492 8,148.5C 9.35613,147.62 10.8561,147.286 12.5,147.5C 11.1372,140.868 13.8039,137.535 20.5,137.5C 20.5,134.833 20.5,132.167 20.5,129.5C 21.5,129.5 22.5,129.5 23.5,129.5C 23.5,131.167 23.5,132.833 23.5,134.5C 24.5,134.5 25.5,134.5 26.5,134.5C 26.5,131.833 26.5,129.167 26.5,126.5C 28.1667,126.5 29.8333,126.5 31.5,126.5C 31.5,123.833 31.5,121.167 31.5,118.5C 32.5,118.5 33.5,118.5 34.5,118.5C 35.1667,115.167 35.8333,111.833 36.5,108.5C 39.1667,108.5 41.8333,108.5 44.5,108.5C 43.5,103.5 45.5,101.5 50.5,102.5C 50.5,100.167 50.5,97.8333 50.5,95.5C 55.4395,94.1968 60.4395,93.1968 65.5,92.5C 65.2606,90.5328 65.5939,88.6995 66.5,87C 68.9005,86.8142 71.2338,86.3142 73.5,85.5C 76.1556,82.3411 79.4889,80.1744 83.5,79C 85.6558,77.0096 87.6558,74.8429 89.5,72.5C 92.0865,71.52 94.7531,71.1866 97.5,71.5C 97.5,70.5 97.5,69.5 97.5,68.5C 100.167,68.5 102.833,68.5 105.5,68.5C 105.5,67.5 105.5,66.5 105.5,65.5C 107.167,65.5 108.833,65.5 110.5,65.5C 110.5,63.8333 110.5,62.1667 110.5,60.5C 113.998,61.0453 116.998,60.212 119.5,58C 126.492,57.5004 133.492,57.3337 140.5,57.5C 140.5,55.8333 140.5,54.1667 140.5,52.5C 150.536,50.2509 160.869,48.5842 171.5,47.5C 171.5,46.5 171.5,45.5 171.5,44.5C 178.5,44.5 185.5,44.5 192.5,44.5C 192.5,42.8333 192.5,41.1667 192.5,39.5C 210.179,39.8329 227.846,39.4995 245.5,38.5C 245.709,37.914 246.043,37.414 246.5,37C 267.167,36.3333 287.833,36.3333 308.5,37C 308.957,37.414 309.291,37.914 309.5,38.5C 319.929,39.1438 330.262,40.4771 340.5,42.5C 340.709,43.086 341.043,43.586 341.5,44C 350.833,44.3333 360.167,44.6667 369.5,45C 373.599,48.0599 378.266,49.8932 383.5,50.5C 384.429,51.6888 384.762,53.0222 384.5,54.5C 391.242,55.135 397.908,56.135 404.5,57.5C 404.5,58.5 404.5,59.5 404.5,60.5C 408.167,60.5 411.833,60.5 415.5,60.5C 415.5,62.1667 415.5,63.8333 415.5,65.5C 420.544,65.1725 425.544,65.5059 430.5,66.5C 432.023,68.2825 434.023,68.9492 436.5,68.5C 436.5,70.1667 436.5,71.8333 436.5,73.5C 439.898,73.1796 443.232,73.513 446.5,74.5C 447.32,76.1112 448.654,76.7778 450.5,76.5C 450.5,78.1667 450.5,79.8333 450.5,81.5C 454.167,81.5 457.833,81.5 461.5,81.5C 461.5,82.5 461.5,83.5 461.5,84.5C 466.538,84.9236 468.871,87.5903 468.5,92.5C 473.067,93.7357 477.734,94.4024 482.5,94.5C 483.154,98.2977 484.154,101.964 485.5,105.5C 488.5,105.5 491.5,105.5 494.5,105.5C 494.335,108.85 494.502,112.183 495,115.5C 496.356,116.38 497.856,116.714 499.5,116.5 Z"/></g>
<g><path style="opacity:1" fill="#d8d8d7" d="M 499.5,210.5 C 499.5,213.167 499.5,215.833 499.5,218.5C 493.353,218.586 487.353,217.753 481.5,216C 480.33,214.245 478.663,213.245 476.5,213C 466.84,211.934 457.174,210.934 447.5,210C 446.663,208.989 446.33,207.822 446.5,206.5C 443.167,206.5 439.833,206.5 436.5,206.5C 436.5,205.5 436.5,204.5 436.5,203.5C 431.985,203.728 427.652,203.062 423.5,201.5C 423.786,194.113 424.62,186.78 426,179.5C 429.057,178.549 432.223,178.216 435.5,178.5C 435.216,175.223 435.549,172.057 436.5,169C 439.817,168.502 443.15,168.335 446.5,168.5C 446.5,154.833 446.5,141.167 446.5,127.5C 443.223,127.784 440.057,127.451 437,126.5C 436.502,123.183 436.335,119.85 436.5,116.5C 433.15,116.665 429.817,116.498 426.5,116C 425.544,112.606 425.211,109.106 425.5,105.5C 422.15,105.665 418.817,105.498 415.5,105C 414.549,101.943 414.216,98.7766 414.5,95.5C 411.482,95.6646 408.482,95.498 405.5,95C 404.565,92.6194 404.232,90.1194 404.5,87.5C 400.833,87.5 397.167,87.5 393.5,87.5C 393.5,86.5 393.5,85.5 393.5,84.5C 389.5,84.5 385.5,84.5 381.5,84.5C 381.5,82.8333 381.5,81.1667 381.5,79.5C 378.5,79.5 375.5,79.5 372.5,79.5C 372.5,78.5 372.5,77.5 372.5,76.5C 368.365,77.1102 364.699,76.2768 361.5,74C 355.175,73.5005 348.842,73.3338 342.5,73.5C 342.671,71.0072 341.671,69.1739 339.5,68C 325.706,67.0946 312.039,65.2613 298.5,62.5C 282.167,61.1667 265.833,61.1667 249.5,62.5C 242.365,64.8091 235.032,65.9757 227.5,66C 226.328,66.4186 225.328,67.0853 224.5,68C 217.809,68.1691 211.142,68.6691 204.5,69.5C 204.291,70.086 203.957,70.586 203.5,71C 197.509,71.4995 191.509,71.6662 185.5,71.5C 185.5,72.5 185.5,73.5 185.5,74.5C 178.665,76.2585 171.665,76.9252 164.5,76.5C 164.5,77.5 164.5,78.5 164.5,79.5C 163.5,79.5 162.5,79.5 161.5,79.5C 161.5,80.5 161.5,81.5 161.5,82.5C 158.167,82.5 154.833,82.5 151.5,82.5C 151.714,84.1439 151.38,85.6439 150.5,87C 148.19,87.4966 145.857,87.6633 143.5,87.5C 143.857,90.9849 142.357,93.3183 139,94.5C 135.895,95.3672 132.728,95.7006 129.5,95.5C 129.5,98.8333 129.5,102.167 129.5,105.5C 125.833,105.5 122.167,105.5 118.5,105.5C 118.5,106.5 118.5,107.5 118.5,108.5C 116.167,108.5 113.833,108.5 111.5,108.5C 111.663,110.857 111.497,113.19 111,115.5C 109.644,116.38 108.144,116.714 106.5,116.5C 106.665,119.85 106.498,123.183 106,126.5C 104.301,127.406 102.467,127.739 100.5,127.5C 100.5,130.833 100.5,134.167 100.5,137.5C 98.8333,137.5 97.1667,137.5 95.5,137.5C 95.5,141.167 95.5,144.833 95.5,148.5C 92.8333,148.5 90.1667,148.5 87.5,148.5C 87.5,162.167 87.5,175.833 87.5,189.5C 88.5,189.5 89.5,189.5 90.5,189.5C 90.5,192.5 90.5,195.5 90.5,198.5C 86.7878,198.961 83.1211,199.627 79.5,200.5C 79.5,201.5 79.5,202.5 79.5,203.5C 77.549,203.773 76.049,203.107 75,201.5C 74.7266,203.101 74.2266,204.601 73.5,206C 70.3486,205.988 67.6819,206.988 65.5,209C 57.3927,209.398 49.8927,211.565 43,215.5C 41.8558,215.089 40.6891,214.756 39.5,214.5C 34.3586,216.45 29.0253,217.617 23.5,218C 20.5203,218.767 17.8537,220.1 15.5,222C 11.1794,222.499 6.84611,222.666 2.5,222.5C 3.08382,225.285 2.08382,226.952 -0.5,227.5C -0.5,223.833 -0.5,220.167 -0.5,216.5C 6.88248,213.323 14.7158,210.99 23,209.5C 26.0195,207.06 29.5195,205.893 33.5,206C 34.3802,204.644 34.7135,203.144 34.5,201.5C 37.8333,201.5 41.1667,201.5 44.5,201.5C 44.9888,183.837 45.3221,166.17 45.5,148.5C 48.1667,148.5 50.8333,148.5 53.5,148.5C 53.5,144.833 53.5,141.167 53.5,137.5C 55.1439,137.714 56.6439,137.38 58,136.5C 58.498,133.518 58.6646,130.518 58.5,127.5C 60.1667,127.5 61.8333,127.5 63.5,127.5C 63.5,124.833 63.5,122.167 63.5,119.5C 64.5,119.5 65.5,119.5 66.5,119.5C 66.5,118.5 66.5,117.5 66.5,116.5C 67.5,116.5 68.5,116.5 69.5,116.5C 69.5,115.5 69.5,114.5 69.5,113.5C 71.1667,113.5 72.8333,113.5 74.5,113.5C 74.3359,110.813 74.5026,108.146 75,105.5C 75.4828,106.448 75.6495,107.448 75.5,108.5C 78.9103,108.616 80.2436,106.95 79.5,103.5C 81.1667,103.5 82.8333,103.5 84.5,103.5C 84.1866,100.753 84.52,98.0865 85.5,95.5C 87.6487,99.4366 88.982,99.1032 89.5,94.5C 92.5,94.5 95.5,94.5 98.5,94.5C 98.3367,92.1432 98.5034,89.8098 99,87.5C 104.084,83.6406 109.918,81.9739 116.5,82.5C 116.5,81.5 116.5,80.5 116.5,79.5C 117.5,79.5 118.5,79.5 119.5,79.5C 119.5,78.5 119.5,77.5 119.5,76.5C 122.833,76.5 126.167,76.5 129.5,76.5C 129.5,74.8333 129.5,73.1667 129.5,71.5C 134.167,71.5 138.833,71.5 143.5,71.5C 143.5,70.5 143.5,69.5 143.5,68.5C 148.704,67.3555 154.037,66.6888 159.5,66.5C 159.351,65.448 159.517,64.448 160,63.5C 160.519,64.5156 161.353,65.1822 162.5,65.5C 165.306,63.9362 168.306,63.2695 171.5,63.5C 171.616,60.1401 171.949,56.8067 172.5,53.5C 188.901,53.3998 205.234,52.3998 221.5,50.5C 221.5,51.5 221.5,52.5 221.5,53.5C 222.833,53.5 224.167,53.5 225.5,53.5C 225.351,52.448 225.517,51.448 226,50.5C 227.009,51.6582 228.342,52.3248 230,52.5C 235.068,51.072 240.235,50.2387 245.5,50C 245.957,49.586 246.291,49.086 246.5,48.5C 251.667,48.1667 256.833,47.8333 262,47.5C 267.802,47.5698 273.469,48.2365 279,49.5C 285.354,47.2969 291.854,46.9636 298.5,48.5C 298.709,49.086 299.043,49.586 299.5,50C 308.827,50.4998 318.161,50.6665 327.5,50.5C 327.5,51.5 327.5,52.5 327.5,53.5C 330.667,54.0282 333.834,54.6949 337,55.5C 340.771,54.3729 344.605,53.7063 348.5,53.5C 348.5,54.8333 348.5,56.1667 348.5,57.5C 350.842,57.5041 352.842,58.3375 354.5,60C 360.5,60.3333 366.5,60.6667 372.5,61C 375.002,63.212 378.002,64.0453 381.5,63.5C 381.5,64.5 381.5,65.5 381.5,66.5C 386.71,66.299 391.71,66.9657 396.5,68.5C 396.5,69.5 396.5,70.5 396.5,71.5C 402.203,73.4224 408.203,74.4224 414.5,74.5C 413.833,78.5 415.5,80.1667 419.5,79.5C 419.5,80.8333 419.5,82.1667 419.5,83.5C 424.813,84.0978 430.146,84.4312 435.5,84.5C 434.839,89.1679 436.839,91.1679 441.5,90.5C 440.833,94.5 442.5,96.1667 446.5,95.5C 445.833,99.5 447.5,101.167 451.5,100.5C 451.286,102.144 451.62,103.644 452.5,105C 455.817,105.498 459.15,105.665 462.5,105.5C 462.5,108.833 462.5,112.167 462.5,115.5C 467.813,116.098 473.146,116.431 478.5,116.5C 478.5,123.5 478.5,130.5 478.5,137.5C 480.167,137.5 481.833,137.5 483.5,137.5C 483.5,144.167 483.5,150.833 483.5,157.5C 481.833,157.5 480.167,157.5 478.5,157.5C 478.5,161.5 478.5,165.5 478.5,169.5C 477.5,169.5 476.5,169.5 475.5,169.5C 475.5,172.167 475.5,174.833 475.5,177.5C 473.167,177.5 470.833,177.5 468.5,177.5C 468.5,185.5 468.5,193.5 468.5,201.5C 475.167,201.5 481.833,201.5 488.5,201.5C 488.963,204.482 489.296,207.482 489.5,210.5C 492.833,210.5 496.167,210.5 499.5,210.5 Z"/></g>
<g><path style="opacity:1" fill="#dededd" d="M 499.5,218.5 C 499.5,221.5 499.5,224.5 499.5,227.5C 497.473,227.662 495.473,227.495 493.5,227C 492.663,225.989 492.33,224.822 492.5,223.5C 484.489,222.865 476.489,222.032 468.5,221C 467.286,219.431 465.619,218.598 463.5,218.5C 448.07,216.93 432.737,214.763 417.5,212C 413.179,211.501 408.846,211.334 404.5,211.5C 404.5,209.833 404.5,208.167 404.5,206.5C 390.154,206.575 375.821,206.242 361.5,205.5C 361.334,200.489 361.501,195.489 362,190.5C 365.394,189.544 368.894,189.211 372.5,189.5C 372.335,186.15 372.502,182.817 373,179.5C 376.057,178.549 379.223,178.216 382.5,178.5C 382.216,175.223 382.549,172.057 383.5,169C 386.817,168.502 390.15,168.335 393.5,168.5C 393.335,165.15 393.502,161.817 394,158.5C 397.394,157.544 400.894,157.211 404.5,157.5C 404.5,147.5 404.5,137.5 404.5,127.5C 401.15,127.665 397.817,127.498 394.5,127C 393.544,123.606 393.211,120.106 393.5,116.5C 390.223,116.784 387.057,116.451 384,115.5C 383.502,112.183 383.335,108.85 383.5,105.5C 379.833,105.5 376.167,105.5 372.5,105.5C 372.5,102.167 372.5,98.8333 372.5,95.5C 371.167,95.5 369.833,95.5 368.5,95.5C 368.5,97.1667 368.5,98.8333 368.5,100.5C 366.5,100.5 364.5,100.5 362.5,100.5C 362.167,97.1667 361.833,93.8333 361.5,90.5C 358.167,90.5 354.833,90.5 351.5,90.5C 351.5,89.5 351.5,88.5 351.5,87.5C 337.008,86.3267 322.675,84.66 308.5,82.5C 308.5,81.5 308.5,80.5 308.5,79.5C 301.5,79.5 294.5,79.5 287.5,79.5C 287.5,78.5 287.5,77.5 287.5,76.5C 277.167,76.5 266.833,76.5 256.5,76.5C 256.5,78.5 256.5,80.5 256.5,82.5C 247.487,82.9253 238.487,83.592 229.5,84.5C 225.969,83.9948 222.469,83.3282 219,82.5C 214.909,83.7324 210.742,84.3991 206.5,84.5C 205.651,87.0359 204.651,89.5359 203.5,92C 200.183,92.4983 196.85,92.665 193.5,92.5C 193.5,93.5 193.5,94.5 193.5,95.5C 190.813,95.3359 188.146,95.5026 185.5,96C 184.692,97.7058 183.359,98.5391 181.5,98.5C 181.649,97.448 181.483,96.448 181,95.5C 180.503,98.146 180.336,100.813 180.5,103.5C 175.167,104.167 169.833,104.833 164.5,105.5C 164.5,106.5 164.5,107.5 164.5,108.5C 163.5,108.5 162.5,108.5 161.5,108.5C 161.5,111.167 161.5,113.833 161.5,116.5C 158.833,116.5 156.167,116.5 153.5,116.5C 151.126,123.248 150.126,130.248 150.5,137.5C 147.167,137.5 143.833,137.5 140.5,137.5C 140.5,147.833 140.5,158.167 140.5,168.5C 144.106,168.211 147.606,168.544 151,169.5C 151.5,181.495 151.667,193.495 151.5,205.5C 147.649,206.029 144.149,205.362 141,203.5C 140.517,204.448 140.351,205.448 140.5,206.5C 129.877,206.33 119.21,206.664 108.5,207.5C 108.5,208.5 108.5,209.5 108.5,210.5C 88.1127,212.848 67.7794,215.848 47.5,219.5C 47.5,221.167 47.5,222.833 47.5,224.5C 34.8369,225.862 22.5035,228.695 10.5,233C 7.25675,235.219 3.59009,236.386 -0.5,236.5C -0.5,233.5 -0.5,230.5 -0.5,227.5C 2.08382,226.952 3.08382,225.285 2.5,222.5C 6.84611,222.666 11.1794,222.499 15.5,222C 17.8537,220.1 20.5203,218.767 23.5,218C 29.0253,217.617 34.3586,216.45 39.5,214.5C 40.6891,214.756 41.8558,215.089 43,215.5C 49.8927,211.565 57.3927,209.398 65.5,209C 67.6819,206.988 70.3486,205.988 73.5,206C 74.2266,204.601 74.7266,203.101 75,201.5C 76.049,203.107 77.549,203.773 79.5,203.5C 79.5,202.5 79.5,201.5 79.5,200.5C 83.1211,199.627 86.7878,198.961 90.5,198.5C 90.5,195.5 90.5,192.5 90.5,189.5C 89.5,189.5 88.5,189.5 87.5,189.5C 87.5,175.833 87.5,162.167 87.5,148.5C 90.1667,148.5 92.8333,148.5 95.5,148.5C 95.5,144.833 95.5,141.167 95.5,137.5C 97.1667,137.5 98.8333,137.5 100.5,137.5C 100.5,134.167 100.5,130.833 100.5,127.5C 102.467,127.739 104.301,127.406 106,126.5C 106.498,123.183 106.665,119.85 106.5,116.5C 108.144,116.714 109.644,116.38 111,115.5C 111.497,113.19 111.663,110.857 111.5,108.5C 113.833,108.5 116.167,108.5 118.5,108.5C 118.5,107.5 118.5,106.5 118.5,105.5C 122.167,105.5 125.833,105.5 129.5,105.5C 129.5,102.167 129.5,98.8333 129.5,95.5C 132.728,95.7006 135.895,95.3672 139,94.5C 142.357,93.3183 143.857,90.9849 143.5,87.5C 145.857,87.6633 148.19,87.4966 150.5,87C 151.38,85.6439 151.714,84.1439 151.5,82.5C 154.833,82.5 158.167,82.5 161.5,82.5C 161.5,81.5 161.5,80.5 161.5,79.5C 162.5,79.5 163.5,79.5 164.5,79.5C 164.5,78.5 164.5,77.5 164.5,76.5C 171.665,76.9252 178.665,76.2585 185.5,74.5C 185.5,73.5 185.5,72.5 185.5,71.5C 191.509,71.6662 197.509,71.4995 203.5,71C 203.957,70.586 204.291,70.086 204.5,69.5C 211.142,68.6691 217.809,68.1691 224.5,68C 225.328,67.0853 226.328,66.4186 227.5,66C 235.032,65.9757 242.365,64.8091 249.5,62.5C 265.833,61.1667 282.167,61.1667 298.5,62.5C 312.039,65.2613 325.706,67.0946 339.5,68C 341.671,69.1739 342.671,71.0072 342.5,73.5C 348.842,73.3338 355.175,73.5005 361.5,74C 364.699,76.2768 368.365,77.1102 372.5,76.5C 372.5,77.5 372.5,78.5 372.5,79.5C 375.5,79.5 378.5,79.5 381.5,79.5C 381.5,81.1667 381.5,82.8333 381.5,84.5C 385.5,84.5 389.5,84.5 393.5,84.5C 393.5,85.5 393.5,86.5 393.5,87.5C 397.167,87.5 400.833,87.5 404.5,87.5C 404.232,90.1194 404.565,92.6194 405.5,95C 408.482,95.498 411.482,95.6646 414.5,95.5C 414.216,98.7766 414.549,101.943 415.5,105C 418.817,105.498 422.15,105.665 425.5,105.5C 425.211,109.106 425.544,112.606 426.5,116C 429.817,116.498 433.15,116.665 436.5,116.5C 436.335,119.85 436.502,123.183 437,126.5C 440.057,127.451 443.223,127.784 446.5,127.5C 446.5,141.167 446.5,154.833 446.5,168.5C 443.15,168.335 439.817,168.502 436.5,169C 435.549,172.057 435.216,175.223 435.5,178.5C 432.223,178.216 429.057,178.549 426,179.5C 424.62,186.78 423.786,194.113 423.5,201.5C 427.652,203.062 431.985,203.728 436.5,203.5C 436.5,204.5 436.5,205.5 436.5,206.5C 439.833,206.5 443.167,206.5 446.5,206.5C 446.33,207.822 446.663,208.989 447.5,210C 457.174,210.934 466.84,211.934 476.5,213C 478.663,213.245 480.33,214.245 481.5,216C 487.353,217.753 493.353,218.586 499.5,218.5 Z"/></g>
<g><path style="opacity:1" fill="#e5e5e4" d="M 499.5,227.5 C 499.5,233.833 499.5,240.167 499.5,246.5C 494.94,245.089 490.273,243.922 485.5,243C 480.434,239.71 474.767,238.043 468.5,238C 468.043,237.586 467.709,237.086 467.5,236.5C 461.193,235.669 454.859,235.169 448.5,235C 447.707,233.915 447.04,232.748 446.5,231.5C 433.095,228.537 419.429,227.037 405.5,227C 404.663,225.989 404.33,224.822 404.5,223.5C 393.838,222.76 383.172,222.093 372.5,221.5C 372.5,220.5 372.5,219.5 372.5,218.5C 352.334,218.199 332.167,217.866 312,217.5C 301.81,217.501 291.977,218.168 282.5,219.5C 271.526,200.896 260.526,182.23 249.5,163.5C 240.807,178.23 232.14,192.897 223.5,207.5C 220.713,206.523 217.713,206.19 214.5,206.5C 214.67,207.822 214.337,208.989 213.5,210C 210.118,210.824 206.784,210.657 203.5,209.5C 203.167,208.833 202.833,208.167 202.5,207.5C 196.833,206.167 191.167,206.167 185.5,207.5C 184.286,209.069 182.619,209.902 180.5,210C 167.285,210.469 154.285,212.303 141.5,215.5C 140.446,215.32 139.446,214.987 138.5,214.5C 133.541,215.219 128.707,216.219 124,217.5C 120.673,217.107 117.339,216.773 114,216.5C 105.106,217.467 96.2723,218.467 87.5,219.5C 87.5,221.167 87.5,222.833 87.5,224.5C 78.0308,226.619 68.3642,227.953 58.5,228.5C 54.9785,229.903 51.3118,230.903 47.5,231.5C 46.3128,232.519 45.3128,233.686 44.5,235C 36.2639,234.585 28.5972,236.085 21.5,239.5C 18.9135,240.48 16.2469,240.813 13.5,240.5C 13.5,241.5 13.5,242.5 13.5,243.5C 10.9552,243.151 8.95519,243.984 7.5,246C 4.85397,246.497 2.1873,246.664 -0.5,246.5C -0.5,243.167 -0.5,239.833 -0.5,236.5C 3.59009,236.386 7.25675,235.219 10.5,233C 22.5035,228.695 34.8369,225.862 47.5,224.5C 47.5,222.833 47.5,221.167 47.5,219.5C 67.7794,215.848 88.1127,212.848 108.5,210.5C 108.5,209.5 108.5,208.5 108.5,207.5C 119.21,206.664 129.877,206.33 140.5,206.5C 140.351,205.448 140.517,204.448 141,203.5C 144.149,205.362 147.649,206.029 151.5,205.5C 151.667,193.495 151.5,181.495 151,169.5C 147.606,168.544 144.106,168.211 140.5,168.5C 140.5,158.167 140.5,147.833 140.5,137.5C 143.833,137.5 147.167,137.5 150.5,137.5C 150.126,130.248 151.126,123.248 153.5,116.5C 156.167,116.5 158.833,116.5 161.5,116.5C 161.5,113.833 161.5,111.167 161.5,108.5C 162.5,108.5 163.5,108.5 164.5,108.5C 164.5,107.5 164.5,106.5 164.5,105.5C 169.833,104.833 175.167,104.167 180.5,103.5C 180.336,100.813 180.503,98.146 181,95.5C 181.483,96.448 181.649,97.448 181.5,98.5C 183.359,98.5391 184.692,97.7058 185.5,96C 188.146,95.5026 190.813,95.3359 193.5,95.5C 193.5,94.5 193.5,93.5 193.5,92.5C 196.85,92.665 200.183,92.4983 203.5,92C 204.651,89.5359 205.651,87.0359 206.5,84.5C 210.742,84.3991 214.909,83.7324 219,82.5C 222.469,83.3282 225.969,83.9948 229.5,84.5C 238.487,83.592 247.487,82.9253 256.5,82.5C 256.5,80.5 256.5,78.5 256.5,76.5C 266.833,76.5 277.167,76.5 287.5,76.5C 287.5,77.5 287.5,78.5 287.5,79.5C 294.5,79.5 301.5,79.5 308.5,79.5C 308.5,80.5 308.5,81.5 308.5,82.5C 322.675,84.66 337.008,86.3267 351.5,87.5C 351.5,88.5 351.5,89.5 351.5,90.5C 354.833,90.5 358.167,90.5 361.5,90.5C 361.833,93.8333 362.167,97.1667 362.5,100.5C 364.5,100.5 366.5,100.5 368.5,100.5C 368.5,98.8333 368.5,97.1667 368.5,95.5C 369.833,95.5 371.167,95.5 372.5,95.5C 372.5,98.8333 372.5,102.167 372.5,105.5C 376.167,105.5 379.833,105.5 383.5,105.5C 383.335,108.85 383.502,112.183 384,115.5C 387.057,116.451 390.223,116.784 393.5,116.5C 393.211,120.106 393.544,123.606 394.5,127C 397.817,127.498 401.15,127.665 404.5,127.5C 404.5,137.5 404.5,147.5 404.5,157.5C 400.894,157.211 397.394,157.544 394,158.5C 393.502,161.817 393.335,165.15 393.5,168.5C 390.15,168.335 386.817,168.502 383.5,169C 382.549,172.057 382.216,175.223 382.5,178.5C 379.223,178.216 376.057,178.549 373,179.5C 372.502,182.817 372.335,186.15 372.5,189.5C 368.894,189.211 365.394,189.544 362,190.5C 361.501,195.489 361.334,200.489 361.5,205.5C 375.821,206.242 390.154,206.575 404.5,206.5C 404.5,208.167 404.5,209.833 404.5,211.5C 408.846,211.334 413.179,211.501 417.5,212C 432.737,214.763 448.07,216.93 463.5,218.5C 465.619,218.598 467.286,219.431 468.5,221C 476.489,222.032 484.489,222.865 492.5,223.5C 492.33,224.822 492.663,225.989 493.5,227C 495.473,227.495 497.473,227.662 499.5,227.5 Z"/></g>
<g><path style="opacity:1" fill="#fbb03c" d="M 282.5,219.5 C 284.137,223.118 286.137,226.451 288.5,229.5C 289.441,231.466 290.441,233.466 291.5,235.5C 287.532,242.631 283.366,249.631 279,256.5C 269.419,239.669 259.585,223.002 249.5,206.5C 243.581,216.002 237.914,225.669 232.5,235.5C 251.833,268.833 271.167,302.167 290.5,335.5C 263.84,336.667 237.173,336.833 210.5,336C 206.577,329.594 202.911,323.094 199.5,316.5C 217.338,315.833 235.338,315.167 253.5,314.5C 253.376,313.893 253.043,313.56 252.5,313.5C 238.098,287.698 223.431,262.031 208.5,236.5C 209.626,232.251 211.293,228.251 213.5,224.5C 217.071,219.033 220.404,213.367 223.5,207.5C 232.14,192.897 240.807,178.23 249.5,163.5C 260.526,182.23 271.526,200.896 282.5,219.5 Z"/></g>
<g><path style="opacity:1" fill="#ececea" d="M 223.5,207.5 C 220.404,213.367 217.071,219.033 213.5,224.5C 212.207,223.842 210.707,223.508 209,223.5C 182.278,225.204 155.778,228.204 129.5,232.5C 128.995,236.159 126.828,237.826 123,237.5C 118.255,236.117 113.422,235.45 108.5,235.5C 108.5,236.5 108.5,237.5 108.5,238.5C 97.7214,238.295 87.0547,238.961 76.5,240.5C 76.6399,242.124 75.9733,243.29 74.5,244C 69.4343,246.077 64.1009,246.911 58.5,246.5C 58.7135,248.144 58.3802,249.644 57.5,251C 53.5,251.833 49.5,252.667 45.5,253.5C 45.2907,254.086 44.9574,254.586 44.5,255C 38.5453,256.072 32.5453,256.572 26.5,256.5C 26.5,257.5 26.5,258.5 26.5,259.5C 23.4516,261.293 20.1183,262.293 16.5,262.5C 16.0342,267.584 14.3675,268.25 11.5,264.5C 10.7132,265.242 10.0465,266.075 9.5,267C 6.51838,267.498 3.51838,267.665 0.5,267.5C 0.767809,269.099 0.434475,270.432 -0.5,271.5C -0.5,263.167 -0.5,254.833 -0.5,246.5C 2.1873,246.664 4.85397,246.497 7.5,246C 8.95519,243.984 10.9552,243.151 13.5,243.5C 13.5,242.5 13.5,241.5 13.5,240.5C 16.2469,240.813 18.9135,240.48 21.5,239.5C 28.5972,236.085 36.2639,234.585 44.5,235C 45.3128,233.686 46.3128,232.519 47.5,231.5C 51.3118,230.903 54.9785,229.903 58.5,228.5C 68.3642,227.953 78.0308,226.619 87.5,224.5C 87.5,222.833 87.5,221.167 87.5,219.5C 96.2723,218.467 105.106,217.467 114,216.5C 117.339,216.773 120.673,217.107 124,217.5C 128.707,216.219 133.541,215.219 138.5,214.5C 139.446,214.987 140.446,215.32 141.5,215.5C 154.285,212.303 167.285,210.469 180.5,210C 182.619,209.902 184.286,209.069 185.5,207.5C 191.167,206.167 196.833,206.167 202.5,207.5C 202.833,208.167 203.167,208.833 203.5,209.5C 206.784,210.657 210.118,210.824 213.5,210C 214.337,208.989 214.67,207.822 214.5,206.5C 217.713,206.19 220.713,206.523 223.5,207.5 Z"/></g>
<g><path style="opacity:1" fill="#f4f4f3" d="M 499.5,246.5 C 499.5,252.5 499.5,258.5 499.5,264.5C 494.699,264.779 490.032,264.112 485.5,262.5C 483.865,262.878 482.365,263.544 481,264.5C 478.98,263.968 478.147,262.635 478.5,260.5C 475.482,260.665 472.482,260.498 469.5,260C 465.527,255.764 460.527,253.93 454.5,254.5C 454.5,253.5 454.5,252.5 454.5,251.5C 452.143,251.663 449.81,251.497 447.5,251C 444.292,249.451 441.126,247.951 438,246.5C 437.481,247.516 436.647,248.182 435.5,248.5C 432.287,247.331 429.287,245.998 426.5,244.5C 417.84,243.713 409.174,243.046 400.5,242.5C 397.99,242.124 395.657,241.29 393.5,240C 372.329,237.652 351.162,235.152 330,232.5C 326.833,232.833 323.667,233.167 320.5,233.5C 319.473,235.024 317.973,235.691 316,235.5C 312.455,234.363 309.289,232.363 306.5,229.5C 300.346,228.183 294.346,228.183 288.5,229.5C 286.137,226.451 284.137,223.118 282.5,219.5C 291.977,218.168 301.81,217.501 312,217.5C 332.167,217.866 352.334,218.199 372.5,218.5C 372.5,219.5 372.5,220.5 372.5,221.5C 383.172,222.093 393.838,222.76 404.5,223.5C 404.33,224.822 404.663,225.989 405.5,227C 419.429,227.037 433.095,228.537 446.5,231.5C 447.04,232.748 447.707,233.915 448.5,235C 454.859,235.169 461.193,235.669 467.5,236.5C 467.709,237.086 468.043,237.586 468.5,238C 474.767,238.043 480.434,239.71 485.5,243C 490.273,243.922 494.94,245.089 499.5,246.5 Z"/></g>
<g><path style="opacity:1" fill="#f6f6f5" d="M 213.5,224.5 C 211.293,228.251 209.626,232.251 208.5,236.5C 207.778,236.082 207.278,235.416 207,234.5C 205.644,235.38 204.144,235.714 202.5,235.5C 202.167,231.5 201.833,231.5 201.5,235.5C 193.833,236.685 186.166,236.685 178.5,235.5C 169.588,239.102 160.254,240.102 150.5,238.5C 144.465,239.037 138.465,239.703 132.5,240.5C 132.5,241.5 132.5,242.5 132.5,243.5C 124.184,243.683 116.184,244.683 108.5,246.5C 108.5,247.833 108.5,249.167 108.5,250.5C 100.458,250.264 92.4583,250.597 84.5,251.5C 84.5,252.5 84.5,253.5 84.5,254.5C 81.979,254.44 79.6457,255.106 77.5,256.5C 74.0145,254.906 70.3479,254.24 66.5,254.5C 66.7076,256.92 66.3742,259.253 65.5,261.5C 61.536,262.777 57.536,263.777 53.5,264.5C 53.5,265.5 53.5,266.5 53.5,267.5C 50.0024,266.955 47.0024,267.788 44.5,270C 41.6287,270.118 38.962,270.784 36.5,272C 32.5138,272.499 28.5138,272.666 24.5,272.5C 24.7135,274.144 24.3802,275.644 23.5,277C 18.104,277.24 13.104,278.407 8.5,280.5C 8.36142,283.588 7.36142,286.255 5.5,288.5C 3.5,288.5 1.5,288.5 -0.5,288.5C -0.5,282.833 -0.5,277.167 -0.5,271.5C 0.434475,270.432 0.767809,269.099 0.5,267.5C 3.51838,267.665 6.51838,267.498 9.5,267C 10.0465,266.075 10.7132,265.242 11.5,264.5C 14.3675,268.25 16.0342,267.584 16.5,262.5C 20.1183,262.293 23.4516,261.293 26.5,259.5C 26.5,258.5 26.5,257.5 26.5,256.5C 32.5453,256.572 38.5453,256.072 44.5,255C 44.9574,254.586 45.2907,254.086 45.5,253.5C 49.5,252.667 53.5,251.833 57.5,251C 58.3802,249.644 58.7135,248.144 58.5,246.5C 64.1009,246.911 69.4343,246.077 74.5,244C 75.9733,243.29 76.6399,242.124 76.5,240.5C 87.0547,238.961 97.7214,238.295 108.5,238.5C 108.5,237.5 108.5,236.5 108.5,235.5C 113.422,235.45 118.255,236.117 123,237.5C 126.828,237.826 128.995,236.159 129.5,232.5C 155.778,228.204 182.278,225.204 209,223.5C 210.707,223.508 212.207,223.842 213.5,224.5 Z"/></g>
<g><path style="opacity:1" fill="#fefefd" d="M 288.5,229.5 C 294.346,228.183 300.346,228.183 306.5,229.5C 309.289,232.363 312.455,234.363 316,235.5C 317.973,235.691 319.473,235.024 320.5,233.5C 323.667,233.167 326.833,232.833 330,232.5C 351.162,235.152 372.329,237.652 393.5,240C 395.657,241.29 397.99,242.124 400.5,242.5C 409.174,243.046 417.84,243.713 426.5,244.5C 429.287,245.998 432.287,247.331 435.5,248.5C 436.647,248.182 437.481,247.516 438,246.5C 441.126,247.951 444.292,249.451 447.5,251C 449.81,251.497 452.143,251.663 454.5,251.5C 454.5,252.5 454.5,253.5 454.5,254.5C 460.527,253.93 465.527,255.764 469.5,260C 472.482,260.498 475.482,260.665 478.5,260.5C 478.147,262.635 478.98,263.968 481,264.5C 482.365,263.544 483.865,262.878 485.5,262.5C 490.032,264.112 494.699,264.779 499.5,264.5C 499.5,342.833 499.5,421.167 499.5,499.5C 332.833,499.5 166.167,499.5 -0.5,499.5C -0.5,429.167 -0.5,358.833 -0.5,288.5C 1.5,288.5 3.5,288.5 5.5,288.5C 7.36142,286.255 8.36142,283.588 8.5,280.5C 13.104,278.407 18.104,277.24 23.5,277C 24.3802,275.644 24.7135,274.144 24.5,272.5C 28.5138,272.666 32.5138,272.499 36.5,272C 38.962,270.784 41.6287,270.118 44.5,270C 47.0024,267.788 50.0024,266.955 53.5,267.5C 53.5,266.5 53.5,265.5 53.5,264.5C 57.536,263.777 61.536,262.777 65.5,261.5C 66.3742,259.253 66.7076,256.92 66.5,254.5C 70.3479,254.24 74.0145,254.906 77.5,256.5C 79.6457,255.106 81.979,254.44 84.5,254.5C 84.5,253.5 84.5,252.5 84.5,251.5C 92.4583,250.597 100.458,250.264 108.5,250.5C 108.5,249.167 108.5,247.833 108.5,246.5C 116.184,244.683 124.184,243.683 132.5,243.5C 132.5,242.5 132.5,241.5 132.5,240.5C 138.465,239.703 144.465,239.037 150.5,238.5C 160.254,240.102 169.588,239.102 178.5,235.5C 186.166,236.685 193.833,236.685 201.5,235.5C 201.833,231.5 202.167,231.5 202.5,235.5C 204.144,235.714 205.644,235.38 207,234.5C 207.278,235.416 207.778,236.082 208.5,236.5C 223.431,262.031 238.098,287.698 252.5,313.5C 234.662,314.167 216.662,314.833 198.5,315.5C 198.624,316.107 198.957,316.44 199.5,316.5C 202.911,323.094 206.577,329.594 210.5,336C 237.173,336.833 263.84,336.667 290.5,335.5C 271.167,302.167 251.833,268.833 232.5,235.5C 237.914,225.669 243.581,216.002 249.5,206.5C 259.585,223.002 269.419,239.669 279,256.5C 283.366,249.631 287.532,242.631 291.5,235.5C 290.441,233.466 289.441,231.466 288.5,229.5 Z"/></g>
<g><path style="opacity:1" fill="#040404" d="M 194.5,257.5 C 199.059,264.268 203.392,271.268 207.5,278.5C 196.626,297.748 185.626,316.915 174.5,336C 166.167,336.667 157.833,336.667 149.5,336C 164.903,310.023 179.903,283.856 194.5,257.5 Z"/></g>
<g><path style="opacity:1" fill="#040404" d="M 303.5,257.5 C 318.933,283.521 334.266,309.688 349.5,336C 340.921,336.816 332.421,336.649 324,335.5C 313.167,316.5 302.333,297.5 291.5,278.5C 295.765,271.635 299.765,264.635 303.5,257.5 Z"/></g>
<g><path style="opacity:1" fill="#fdd69a" d="M 252.5,313.5 C 253.043,313.56 253.376,313.893 253.5,314.5C 235.338,315.167 217.338,315.833 199.5,316.5C 198.957,316.44 198.624,316.107 198.5,315.5C 216.662,314.833 234.662,314.167 252.5,313.5 Z"/></g>
<g><path style="opacity:1" fill="#1c1c1c" d="M 455.5,455.5 C 456.5,455.5 457.5,455.5 458.5,455.5C 458.5,461.167 458.5,466.833 458.5,472.5C 459.978,472.238 461.311,472.571 462.5,473.5C 458.5,474.833 454.5,474.833 450.5,473.5C 452.396,472.534 454.396,472.201 456.5,472.5C 456.5,467.833 456.5,463.167 456.5,458.5C 450.281,459.726 449.948,458.726 455.5,455.5 Z"/></g>
</svg>
